<svg width="40" height="40" viewBox="0 0 49 56" fill="none" xmlns="http://www.w3.org/2000/svg">
<path d="M23.5831 52.8161L24.4168 53.6679L25.2506 52.8161L30.5712 47.3804C40.1545 44.6376 47.1668 35.6791 47.1668 25.05C47.1668 18.9005 44.7759 12.998 40.5123 8.64221C36.2478 4.28557 30.4587 1.83333 24.4168 1.83333C18.375 1.83333 12.5858 4.28557 8.32137 8.64221C4.05777 12.998 1.66683 18.9005 1.66683 25.05C1.66683 35.6791 8.67915 44.6376 18.2624 47.3804L23.5831 52.8161Z" fill="#3461FF" stroke="#A2B6FF" stroke-width="2.33333"/>
<path d="M24.4168 3C18.6926 3 13.2028 5.32312 9.15511 9.45829C5.10745 13.5935 2.8335 19.202 2.8335 25.05C2.8335 35.2665 9.64424 43.8415 18.8771 46.3405L24.4168 52L29.9566 46.3405C39.1894 43.8415 46.0002 35.2665 46.0002 25.05C46.0002 19.202 43.7262 13.5935 39.6786 9.45829C35.6309 5.32312 30.1411 3 24.4168 3ZM24.4168 7.9C28.3978 7.9 31.6113 11.183 31.6113 15.25C31.6113 19.317 28.3978 22.6 24.4168 22.6C20.4359 22.6 17.2224 19.317 17.2224 15.25C17.2224 11.183 20.4359 7.9 24.4168 7.9ZM24.4168 42.935C21.5675 42.935 18.7624 42.2146 16.2518 40.8381C13.7412 39.4616 11.603 37.4718 10.0279 35.046C10.0999 30.1705 19.6205 27.5 24.4168 27.5C29.1891 27.5 38.7338 30.1705 38.8057 35.046C37.2307 37.4718 35.0925 39.4616 32.5819 40.8381C30.0712 42.2146 27.2662 42.935 24.4168 42.935Z" fill="#EEF2FF"/>
</svg>
