<svg width="19" height="18" viewBox="0 0 19 18" fill="none" xmlns="http://www.w3.org/2000/svg">
<g clip-path="url(#clip0_62_1338)">
<path d="M11.3425 5.68406L3.24756 14.2917C3.24756 14.2917 5.82888 17.3728 9.95134 17.1872C12.7874 17.0592 14.4885 16.0087 15.881 14.4197C17.5821 12.4777 17.9656 9.62859 17.8665 8.32219C17.7378 6.63187 16.5773 4.42828 15.6744 3.76172C14.7715 3.09516 11.3425 5.68406 11.3425 5.68406Z" fill="#D7CCC6"/>
<path d="M3.99474 2.94328C1.31153 5.31563 -0.461715 10.7016 3.24751 14.2917C5.23303 16.2127 11.7288 16.3097 14.8224 12.2878C16.2758 10.3992 17.4419 7.44469 16.6537 5.09484C16.3437 4.17234 15.5116 3.51 14.7715 2.89125C11.2137 -0.0801551 7.2695 0.0478137 3.99474 2.94328Z" fill="#F1EDEC"/>
<path d="M10.3038 17.4502L9.75324 17.4052C9.76457 17.3531 10.9109 12.2344 7.55969 8.87906C6.0709 7.38844 4.69958 6.69937 3.48251 6.83297C2.21449 6.97078 1.37104 8.13797 1.36538 8.14922L1.10498 7.62469C1.13753 7.57406 1.88475 6.44203 3.42166 6.27469C4.81987 6.12422 6.34687 6.86672 7.96302 8.48391C11.535 12.0628 10.3547 17.228 10.3038 17.4502ZM17.7095 8.5514C17.6713 8.52609 13.9507 5.90906 12.0303 4.28062C10.3038 2.81812 8.01538 0.774842 7.99416 0.753749L8.39183 0.506248C8.41305 0.525936 10.6165 2.46797 12.3374 3.92625C14.2408 5.53922 17.8085 8.08031 17.8468 8.10562L17.7095 8.5514Z" fill="#979892"/>
<path d="M10.1169 2.28516C10.0462 2.35969 9.86363 2.9025 9.79287 3.20485C9.75183 3.37781 9.7773 3.64641 9.99524 3.68156C10.2387 3.72235 10.3306 3.58313 10.4056 3.37641C10.4807 3.16969 10.6137 2.79563 10.6137 2.79563C10.6137 2.79563 11.0014 2.66766 11.1925 2.61141C11.4472 2.53688 11.5222 2.43281 11.5279 2.30063C11.5336 2.16844 11.3949 1.92094 10.9661 2.01938C10.7014 2.08125 10.2203 2.17547 10.1169 2.28516ZM8.86592 1.2361C8.80506 1.28531 8.51353 1.98985 8.46683 2.07844C8.41871 2.16703 8.389 2.39344 8.55599 2.48906C8.72298 2.58469 8.90554 2.42016 8.96923 2.27953C9.03149 2.13891 9.21406 1.72125 9.21406 1.72125C9.21406 1.72125 9.65984 1.69735 9.81976 1.67485C10.0151 1.64813 10.1637 1.59469 10.1523 1.3711C10.141 1.1475 9.7773 1.16438 9.40228 1.18828C9.16594 1.20235 8.90696 1.20235 8.86592 1.2361ZM7.99274 0.423283C7.89085 0.469689 7.49459 0.871877 7.44223 0.940783C7.38987 1.00969 7.35024 1.15875 7.48327 1.26281C7.6163 1.36688 7.80169 1.27969 7.89934 1.21078C7.9984 1.14188 8.18238 0.916877 8.18238 0.916877C8.18238 0.916877 8.56448 0.922502 8.67486 0.928127C8.78525 0.933752 8.9296 0.84797 8.9296 0.675002C8.9296 0.502033 8.72723 0.433127 8.55882 0.427502C8.39183 0.423283 8.05642 0.393752 7.99274 0.423283ZM11.7175 3.60844C11.6241 3.68156 11.3949 4.4986 11.3468 4.66313C11.2986 4.82766 11.2208 5.17922 11.4656 5.25516C11.7232 5.33531 11.8959 5.22141 11.9723 4.93172C12.043 4.66453 12.2044 4.10625 12.2044 4.10625C12.2044 4.10625 12.8228 3.87985 12.9587 3.82781C13.0945 3.77578 13.2516 3.60422 13.1568 3.39328C13.062 3.18235 12.7917 3.20906 12.6586 3.25688C12.6601 3.25828 11.8081 3.53813 11.7175 3.60844ZM13.3139 4.96969C13.2488 5.05406 13.0308 5.80922 12.9955 5.96531C12.9601 6.12 12.9615 6.3675 13.2092 6.43078C13.4115 6.48281 13.5743 6.37875 13.6196 6.18891C13.696 5.87391 13.863 5.41828 13.863 5.41828C13.863 5.41828 14.3031 5.17078 14.4701 5.085C14.6385 4.99922 14.7135 4.76297 14.6088 4.59563C14.5041 4.42828 14.2677 4.45219 14.0356 4.53235C13.805 4.61391 13.3719 4.89516 13.3139 4.96969ZM14.8975 6.15656C14.8154 6.27891 14.7928 7.00172 14.7928 7.11141C14.7928 7.2211 14.8734 7.50797 15.1338 7.50797C15.3659 7.50797 15.4636 7.26047 15.4636 7.13391C15.4636 7.00735 15.4919 6.51797 15.4919 6.51797C15.4919 6.51797 15.7905 6.36047 15.8966 6.28735C16.041 6.18891 16.2037 6.0061 16.099 5.81063C15.9943 5.61516 15.7169 5.67281 15.5372 5.74735C15.4112 5.80219 14.9555 6.07078 14.8975 6.15656ZM16.3466 7.32516C16.2957 7.4475 16.2929 8.12953 16.3042 8.31375C16.3155 8.49797 16.4726 8.65828 16.675 8.65266C16.8773 8.64703 16.9707 8.45719 16.9637 8.30813C16.9566 8.15906 16.975 7.66969 16.975 7.66969C16.975 7.66969 17.2439 7.48406 17.3161 7.43344C17.4264 7.35891 17.4491 7.18031 17.3514 7.0425C17.2524 6.90469 17.05 6.86391 16.8589 6.9736C16.6679 7.08328 16.3665 7.27594 16.3466 7.32516ZM17.4208 8.08875C17.3288 8.24625 17.4151 8.96344 17.4151 9.03235C17.4151 9.10125 17.4378 9.3375 17.6755 9.3375C17.8835 9.3375 17.9529 9.21094 17.9586 9.09563C17.9642 8.98031 17.9472 8.33063 17.9472 8.33063C17.9472 8.33063 18.1496 8.26735 18.0633 8.00297C17.9769 7.74 17.517 7.92563 17.4208 8.08875ZM9.30887 17.0733C9.22962 17.2125 9.2466 17.3953 9.54521 17.5444C9.84523 17.6934 9.90609 17.7019 9.96977 17.7061C10.0816 17.7117 10.3377 17.6259 10.5061 17.5331C10.6406 17.4586 10.8061 17.3475 10.6873 17.1309C10.5769 16.9284 9.97685 17.1675 9.97685 17.1675C9.97685 17.1675 9.44615 16.8328 9.30887 17.0733ZM9.27066 15.8034C9.10508 15.9553 9.21405 16.1817 9.55087 16.3983C9.85089 16.5909 10.0193 16.733 10.1495 16.733C10.2797 16.733 10.7708 16.4869 10.8981 16.4166C11.092 16.3111 11.1543 16.1002 11.0043 15.9511C10.8543 15.802 10.642 15.9567 10.5358 16.013C10.4297 16.0692 10.1863 16.1859 10.1863 16.1859C10.1863 16.1859 9.86787 15.9567 9.76173 15.8822C9.65559 15.8077 9.43341 15.6544 9.27066 15.8034ZM9.10933 14.2453C8.97347 14.4478 9.05272 14.6602 9.3768 14.8402C9.70088 15.0202 10.107 15.1805 10.2372 15.2002C10.3674 15.2198 10.8797 14.7783 10.9788 14.6855C11.0779 14.5927 11.3524 14.3016 11.1783 14.1033C10.9703 13.867 10.7481 14.047 10.5486 14.1834C10.3957 14.2875 10.2174 14.4183 10.2174 14.4183C10.2174 14.4183 9.87495 14.3255 9.67541 14.2327C9.47728 14.1398 9.23387 14.0597 9.10933 14.2453ZM9.91741 12.593C9.91741 12.593 10.2726 12.2273 10.4042 12.1036C10.5358 11.9798 10.7594 11.8561 10.9279 12.0544C11.0963 12.2527 10.9222 12.5508 10.7651 12.6928C10.608 12.8348 10.2104 13.3003 10.0971 13.3186C9.98392 13.3369 9.15603 13.1878 8.91828 13.0641C8.77817 12.9909 8.55599 12.8531 8.68194 12.5747C8.78525 12.3441 9.01876 12.3708 9.19283 12.4073C9.3669 12.4439 9.91741 12.593 9.91741 12.593ZM9.07112 10.6045C9.07112 10.6045 9.37114 9.99703 9.4702 9.78047C9.57068 9.56391 9.69522 9.36563 9.97543 9.46406C10.2556 9.5625 10.1707 9.82547 10.0759 10.0772C9.96411 10.3753 9.65135 11.1614 9.51408 11.2303C9.34708 11.3133 8.46683 11.3414 8.16115 11.3358C8.02387 11.333 7.8682 11.2359 7.87386 11.0503C7.87952 10.8647 7.99557 10.7353 8.29842 10.6847C8.48523 10.6538 9.07112 10.6045 9.07112 10.6045ZM7.68706 8.59641C7.65592 8.61469 7.01201 8.87203 6.85068 8.91844C6.61434 8.98594 6.53226 9.22219 6.5832 9.38953C6.63415 9.55688 6.86341 9.64406 7.1323 9.5625C7.39977 9.48235 8.21068 9.27703 8.28569 9.16031C8.36069 9.0436 8.48523 8.2125 8.5107 7.99594C8.53618 7.77938 8.54184 7.50656 8.25455 7.46297C7.96727 7.41938 7.84981 7.61203 7.82433 7.81594C7.80876 7.9411 7.68706 8.59641 7.68706 8.59641ZM5.95203 7.20563C5.95203 7.20563 6.00156 6.64172 6.01996 6.47438C6.03835 6.30703 6.10062 6.08344 6.39357 6.10313C6.68651 6.12281 6.65538 6.49969 6.65538 6.74156C6.65538 6.98344 6.59877 7.61485 6.56198 7.64578C6.52518 7.67672 6.13176 7.98047 5.92655 8.11688C5.72135 8.25328 5.39019 8.34469 5.26566 8.15906C5.14112 7.97344 5.32227 7.68375 5.52181 7.53469C5.72135 7.38563 5.95203 7.20563 5.95203 7.20563ZM4.15897 5.3086C3.87027 5.38031 3.88443 5.67985 3.97217 5.9836C4.05991 6.28735 4.10944 6.53485 4.10944 6.53485C4.10944 6.53485 3.90424 6.85125 3.8165 6.96235C3.72875 7.07344 3.45421 7.4025 3.74149 7.63735C4.02878 7.87219 4.30898 7.45735 4.41512 7.3336C4.51843 7.21406 4.85808 6.76406 4.85808 6.70219C4.85808 6.52219 4.67127 5.85985 4.6274 5.71641C4.58353 5.57297 4.48305 5.22844 4.15897 5.3086ZM2.08713 5.7825C1.95834 5.86969 1.89324 6.13547 2.05599 6.36469C2.18902 6.55313 2.28667 6.7486 2.28667 6.7486C2.28667 6.7486 2.1126 7.25063 2.04326 7.41235C1.97391 7.57406 1.89324 7.92703 2.18053 8.03813C2.46781 8.14922 2.66736 7.83985 2.74236 7.61063C2.81737 7.38141 3.01691 6.86672 3.02257 6.71203C3.02682 6.60938 2.7551 6.10453 2.63622 5.93156C2.51735 5.7586 2.28101 5.65313 2.08713 5.7825ZM1.61304 7.54875C1.64559 7.69641 1.5635 8.11266 1.48142 8.46563C1.45736 8.56969 1.42198 8.80313 1.12621 8.73141C0.870057 8.66953 0.976197 8.3475 1.00733 8.18578C1.02573 8.09016 1.10073 7.7836 1.10073 7.7836C1.10073 7.7836 0.964876 7.71047 0.969121 7.55438C0.974782 7.35047 1.08092 7.28156 1.24933 7.26891C1.41774 7.25625 1.58756 7.43766 1.61304 7.54875Z" fill="#ED520A"/>
</g>
<defs>
<clipPath id="clip0_62_1338">
<rect width="18.1145" height="18" fill="white" transform="translate(0.444092)"/>
</clipPath>
</defs>
</svg>
