<svg width="19" height="18" viewBox="0 0 19 18" fill="none" xmlns="http://www.w3.org/2000/svg">
<path d="M9.81006 18C14.7806 18 18.8101 13.9706 18.8101 9C18.8101 4.02943 14.7806 0 9.81006 0C4.83949 0 0.810059 4.02943 0.810059 9C0.810059 13.9706 4.83949 18 9.81006 18Z" fill="url(#paint0_radial_62_1328)"/>
<path d="M9.81006 18C14.7806 18 18.8101 13.9706 18.8101 9C18.8101 4.02943 14.7806 0 9.81006 0C4.83949 0 0.810059 4.02943 0.810059 9C0.810059 13.9706 4.83949 18 9.81006 18Z" fill="url(#paint1_radial_62_1328)"/>
<path d="M9.81006 18C14.7806 18 18.8101 13.9706 18.8101 9C18.8101 4.02943 14.7806 0 9.81006 0C4.83949 0 0.810059 4.02943 0.810059 9C0.810059 13.9706 4.83949 18 9.81006 18Z" fill="url(#paint2_radial_62_1328)"/>
<g filter="url(#filter0_ii_62_1328)">
<path d="M9.81006 18C14.7806 18 18.8101 13.9706 18.8101 9C18.8101 4.02943 14.7806 0 9.81006 0C4.83949 0 0.810059 4.02943 0.810059 9C0.810059 13.9706 4.83949 18 9.81006 18Z" fill="url(#paint3_radial_62_1328)"/>
<path d="M0.828665 8.415C0.813721 8.64804 0.807716 8.88157 0.810665 9.11507C1.03382 9.02857 1.25422 8.93509 1.47152 8.83479C2.17674 8.51079 3.09859 8.00421 3.95166 7.27586C4.57524 6.74357 5.16667 6.08914 5.60767 5.2965C6.12195 5.56457 6.61245 5.84293 7.08109 6.12836C5.97418 7.42979 5.08539 8.90192 4.44924 10.4876C3.91115 11.8277 3.56571 13.2374 3.42324 14.6745C3.40138 14.9001 3.38724 15.1078 3.37824 15.2949C3.57752 15.4993 3.78774 15.6941 4.00631 15.8792C4.00659 15.4975 4.02547 15.1161 4.06288 14.7362C4.16124 13.716 4.41645 12.2998 5.04645 10.7267C5.66849 9.17643 6.54208 7.73941 7.63202 6.47357C8.28134 6.89216 8.91054 7.34116 9.51752 7.81907C9.10783 8.27794 8.7589 8.78763 8.47931 9.33557C7.09459 12.033 7.28938 15.6484 9.29317 17.9852C9.5903 18.0021 9.88808 18.0045 10.1855 17.9923C8.01195 15.9236 7.67188 12.3139 9.05145 9.62871C9.31309 9.11893 9.63581 8.64514 10.0177 8.22407C11.1859 9.19467 12.2574 10.2761 13.2172 11.4531C14.1249 12.5611 14.9188 13.7578 15.5867 15.0249C15.705 15.2505 15.8053 15.4556 15.8902 15.6356C16.0573 15.4826 16.2187 15.3231 16.3742 15.1573C16.3038 15.0129 16.2313 14.8696 16.157 14.7272C15.4687 13.4216 14.6508 12.1885 13.7154 11.0469C12.854 9.98936 11.7868 8.865 10.4767 7.77021C11.0978 7.21792 11.8312 6.80671 12.6264 6.56486C14.193 6.08529 16.1975 6.17271 18.6307 7.20257C18.5779 6.94269 18.5135 6.68529 18.4378 6.43114C16.0914 5.52471 14.0792 5.44757 12.438 5.95028C11.521 6.22927 10.6784 6.71086 9.97267 7.35943C9.35838 6.87287 8.72169 6.4153 8.06466 5.98821C9.61074 4.32514 11.7418 2.72636 14.6816 1.431C14.4604 1.28845 14.233 1.15568 14.0002 1.03307C11.1433 2.3535 9.04759 3.96321 7.51245 5.6385C6.99817 5.32221 6.45817 5.01493 5.89117 4.71921C5.94138 4.6012 5.98769 4.48156 6.03002 4.3605C6.39002 3.33579 6.48967 2.14071 6.17852 0.762428C5.97602 0.852428 5.77738 0.948857 5.58324 1.05171C5.82945 2.25643 5.72788 3.2805 5.42381 4.14771C5.39048 4.24215 5.35447 4.33562 5.31581 4.428C4.49758 4.02688 3.66022 3.66602 2.80674 3.34671C2.66659 3.52029 2.53224 3.69964 2.40495 3.8835C3.30034 4.21158 4.17796 4.58623 5.03424 5.00593C4.63888 5.70729 4.10852 6.29679 3.53445 6.78664C2.73988 7.46486 1.87395 7.9425 1.20281 8.25107C1.06974 8.31214 0.943736 8.36679 0.828665 8.415Z" fill="#4D3A45"/>
</g>
<defs>
<filter id="filter0_ii_62_1328" x="0.809937" y="-0.1" width="18.0001" height="18.2" filterUnits="userSpaceOnUse" color-interpolation-filters="sRGB">
<feFlood flood-opacity="0" result="BackgroundImageFix"/>
<feBlend mode="normal" in="SourceGraphic" in2="BackgroundImageFix" result="shape"/>
<feColorMatrix in="SourceAlpha" type="matrix" values="0 0 0 0 0 0 0 0 0 0 0 0 0 0 0 0 0 0 127 0" result="hardAlpha"/>
<feOffset dy="0.2"/>
<feGaussianBlur stdDeviation="0.05"/>
<feComposite in2="hardAlpha" operator="arithmetic" k2="-1" k3="1"/>
<feColorMatrix type="matrix" values="0 0 0 0 0.266667 0 0 0 0 0.172549 0 0 0 0 0.25098 0 0 0 1 0"/>
<feBlend mode="normal" in2="shape" result="effect1_innerShadow_62_1328"/>
<feColorMatrix in="SourceAlpha" type="matrix" values="0 0 0 0 0 0 0 0 0 0 0 0 0 0 0 0 0 0 127 0" result="hardAlpha"/>
<feOffset dy="-0.2"/>
<feGaussianBlur stdDeviation="0.05"/>
<feComposite in2="hardAlpha" operator="arithmetic" k2="-1" k3="1"/>
<feColorMatrix type="matrix" values="0 0 0 0 0.356863 0 0 0 0 0.294118 0 0 0 0 0.305882 0 0 0 1 0"/>
<feBlend mode="normal" in2="effect1_innerShadow_62_1328" result="effect2_innerShadow_62_1328"/>
</filter>
<radialGradient id="paint0_radial_62_1328" cx="0" cy="0" r="1" gradientUnits="userSpaceOnUse" gradientTransform="translate(15.0228 5.37332) rotate(138.691) scale(12.0079)">
<stop stop-color="#FFA167"/>
<stop offset="0.554" stop-color="#FF7D31"/>
<stop offset="1" stop-color="#EC5B36"/>
</radialGradient>
<radialGradient id="paint1_radial_62_1328" cx="0" cy="0" r="1" gradientUnits="userSpaceOnUse" gradientTransform="translate(11.3323 6.46714) rotate(99.462) scale(12.4695 16.4443)">
<stop offset="0.466" stop-color="#D73853" stop-opacity="0"/>
<stop offset="1" stop-color="#D75B8F"/>
</radialGradient>
<radialGradient id="paint2_radial_62_1328" cx="0" cy="0" r="1" gradientUnits="userSpaceOnUse" gradientTransform="translate(9.80942 5.88407) rotate(90) scale(12.1162)">
<stop offset="0.895" stop-color="#D85C90" stop-opacity="0"/>
<stop offset="1" stop-color="#D85C90"/>
</radialGradient>
<radialGradient id="paint3_radial_62_1328" cx="0" cy="0" r="1" gradientUnits="userSpaceOnUse" gradientTransform="translate(10.907 10.4314) rotate(-144.333) scale(10.7693 12.6666)">
<stop offset="0.858" stop-color="#E07162" stop-opacity="0"/>
<stop offset="1" stop-color="#E07162"/>
</radialGradient>
</defs>
</svg>
