<svg width="17" height="17" viewBox="0 0 17 17" fill="none" xmlns="http://www.w3.org/2000/svg">
<path d="M11.8614 9.09129C13.154 9.67243 14.2562 10.5777 15.0497 11.71C15.8433 12.8423 16.2982 14.159 16.3659 15.5188C16.3749 15.6434 16.3577 15.7684 16.3152 15.8865C16.2728 16.0047 16.2061 16.1135 16.1189 16.2068C16.0317 16.3 15.9258 16.3757 15.8075 16.4294C15.6891 16.4832 15.5607 16.5139 15.4298 16.5197C15.2988 16.5255 15.1679 16.5064 15.0449 16.4634C14.9218 16.4204 14.809 16.3544 14.713 16.2693C14.6171 16.1843 14.5399 16.0818 14.4861 15.9679C14.4323 15.8541 14.403 15.7311 14.3997 15.6063C14.3282 14.162 13.6754 12.7993 12.5768 11.8013C11.4782 10.8032 10.0183 10.2464 8.50003 10.2464C6.98178 10.2464 5.52185 10.8032 4.42328 11.8013C3.32471 12.7993 2.67189 14.162 2.60034 15.6063C2.58266 15.8508 2.46517 16.0789 2.27303 16.2419C2.08088 16.4049 1.82937 16.4898 1.57234 16.4784C1.31531 16.4669 1.0732 16.3601 0.897856 16.1807C0.722512 16.0014 0.627875 15.7638 0.63421 15.5188C0.701711 14.1591 1.15649 12.8425 1.94979 11.7102C2.7431 10.5779 3.84501 9.6726 5.1374 9.09129C4.30923 8.4334 3.71395 7.54852 3.43253 6.55701C3.15111 5.56551 3.19722 4.5155 3.56459 3.54984C3.93195 2.58417 4.60273 1.74971 5.48569 1.15998C6.36865 0.570246 7.42093 0.25386 8.49938 0.25386C9.57783 0.25386 10.6301 0.570246 11.5131 1.15998C12.396 1.74971 13.0668 2.58417 13.4342 3.54984C13.8015 4.5155 13.8476 5.56551 13.5662 6.55701C13.2848 7.54852 12.6895 8.4334 11.8614 9.09129ZM11.7813 5.25004C11.7813 4.42124 11.4356 3.62639 10.8202 3.04034C10.2049 2.45428 9.37028 2.12504 8.50003 2.12504C7.62979 2.12504 6.79519 2.45428 6.17984 3.04034C5.56448 3.62639 5.21878 4.42124 5.21878 5.25004C5.21878 6.07885 5.56448 6.8737 6.17984 7.45975C6.79519 8.0458 7.62979 8.37504 8.50003 8.37504C9.37028 8.37504 10.2049 8.0458 10.8202 7.45975C11.4356 6.8737 11.7813 6.07885 11.7813 5.25004Z" fill="#D8D8D8"/>
</svg>
