<svg width="16" height="20" viewBox="0 0 16 20" fill="none" xmlns="http://www.w3.org/2000/svg">
<path d="M2.50008 19.25C1.99592 19.25 1.56447 19.0788 1.20575 18.7364C0.847026 18.3939 0.667359 17.9818 0.666748 17.5V8.74999C0.666748 8.26874 0.846415 7.8569 1.20575 7.51449C1.56508 7.17207 1.99653 7.00057 2.50008 6.99999H3.41675V5.24999C3.41675 4.03957 3.86378 3.00794 4.75784 2.15511C5.65189 1.30228 6.73264 0.875569 8.00009 0.874985C9.26753 0.874402 10.3486 1.30111 11.2433 2.15511C12.1379 3.00911 12.5846 4.04074 12.5834 5.24999V6.99999H13.5001C14.0043 6.99999 14.436 7.17149 14.7953 7.51449C15.1547 7.85749 15.334 8.26932 15.3334 8.74999V17.5C15.3334 17.9812 15.1541 18.3934 14.7953 18.7364C14.4366 19.0794 14.0049 19.2506 13.5001 19.25H2.50008ZM2.50008 17.5H13.5001V8.74999H2.50008V17.5ZM8.00009 14.875C8.50426 14.875 8.93601 14.7038 9.29534 14.3614C9.65467 14.0189 9.83403 13.6068 9.83342 13.125C9.83281 12.6432 9.65345 12.2313 9.29534 11.8895C8.93723 11.5477 8.50548 11.3762 8.00009 11.375C7.4947 11.3738 7.06325 11.5453 6.70575 11.8895C6.34825 12.2337 6.16859 12.6455 6.16675 13.125C6.16492 13.6045 6.34459 14.0166 6.70575 14.3614C7.06692 14.7061 7.49837 14.8773 8.00009 14.875ZM5.25009 6.99999H10.7501V5.24999C10.7501 4.52082 10.4827 3.90103 9.94801 3.39061C9.41328 2.88019 8.76398 2.62499 8.00009 2.62499C7.2362 2.62499 6.58689 2.88019 6.05217 3.39061C5.51745 3.90103 5.25009 4.52082 5.25009 5.24999V6.99999Z" fill="#D8D8D8"/>
</svg>
