<svg width="18" height="18" viewBox="0 0 18 18" fill="none" xmlns="http://www.w3.org/2000/svg">
<path d="M16.3004 4.06631C19.0263 8.03475 18.0194 13.4617 14.0507 16.1854C10.0822 18.9115 4.65524 17.9044 1.9288 13.9354C-0.797637 9.96694 0.210082 4.53994 4.1788 1.8135C8.14724 -0.912094 13.5742 0.0953434 16.2979 4.0635" fill="#E6E7E8"/>
<path d="M10.0409 11.9661L6.43076 12.368L4.27695 9.44325L5.73438 6.11606L9.34507 5.71331L11.4986 8.63944L10.0409 11.9661ZM17.3483 6.525C17.0908 5.62534 16.69 4.77302 16.1614 4.00078C15.3999 2.89314 14.391 1.97799 13.2145 1.32778L12.0676 3.9479L14.2211 6.87347L17.348 6.52472M5.31223 3.30047L6.43329 0.739967C4.72617 1.26401 3.22134 2.30003 2.12257 3.70772L5.28185 3.35615C5.29254 3.33703 5.30098 3.31875 5.31223 3.30047ZM14.9178 12.0645L13.4609 15.392L14.0268 16.1603C14.0332 16.1547 14.0417 16.1519 14.0493 16.1463C15.6521 15.046 16.7622 13.5008 17.3464 11.7931L14.9164 12.0639M2.12482 11.1541L0.688477 11.3144C1.15704 13.0939 2.17291 14.636 3.53529 15.7759L4.27807 14.0799L2.12482 11.1541Z" fill="#404041"/>
</svg>
