<svg width="20" height="20" viewBox="0 0 32 32" fill="none" xmlns="http://www.w3.org/2000/svg">
<g filter="url(#filter0_iii_89_3215)">
<path d="M18.605 3.74399L20.808 8.36399C21.148 9.04999 21.771 9.53299 22.493 9.63999L27.421 10.336C29.959 10.712 30.917 13.437 28.948 15.422L25.495 18.984C25.2145 19.2673 25.0062 19.6138 24.8875 19.9944C24.7688 20.375 24.7433 20.7785 24.813 21.171L25.589 26.234C26.03 28.86 23.819 30.724 21.581 29.524L17.045 27.111C16.7359 26.9474 16.3916 26.8619 16.042 26.8619C15.6923 26.8619 15.348 26.9474 15.039 27.111L10.503 29.523C8.26496 30.713 5.91696 28.906 6.57296 26.172L7.33896 21.219C7.40865 20.8265 7.38308 20.423 7.2644 20.0424C7.14572 19.6618 6.9374 19.3153 6.65696 19.032L3.13596 15.344C1.15096 13.383 2.12496 10.712 4.66296 10.337L9.40996 9.63999C10.133 9.53299 10.962 9.06099 11.293 8.36399L13.541 3.74399C14.685 1.41899 17.471 1.41899 18.606 3.74399" fill="url(#paint0_radial_89_3215)"/>
<path d="M18.605 3.74399L20.808 8.36399C21.148 9.04999 21.771 9.53299 22.493 9.63999L27.421 10.336C29.959 10.712 30.917 13.437 28.948 15.422L25.495 18.984C25.2145 19.2673 25.0062 19.6138 24.8875 19.9944C24.7688 20.375 24.7433 20.7785 24.813 21.171L25.589 26.234C26.03 28.86 23.819 30.724 21.581 29.524L17.045 27.111C16.7359 26.9474 16.3916 26.8619 16.042 26.8619C15.6923 26.8619 15.348 26.9474 15.039 27.111L10.503 29.523C8.26496 30.713 5.91696 28.906 6.57296 26.172L7.33896 21.219C7.40865 20.8265 7.38308 20.423 7.2644 20.0424C7.14572 19.6618 6.9374 19.3153 6.65696 19.032L3.13596 15.344C1.15096 13.383 2.12496 10.712 4.66296 10.337L9.40996 9.63999C10.133 9.53299 10.962 9.06099 11.293 8.36399L13.541 3.74399C14.685 1.41899 17.471 1.41899 18.606 3.74399" fill="url(#paint1_radial_89_3215)"/>
</g>
<path d="M18.605 3.74399L20.808 8.36399C21.148 9.04999 21.771 9.53299 22.493 9.63999L27.421 10.336C29.959 10.712 30.917 13.437 28.948 15.422L25.495 18.984C25.2145 19.2673 25.0062 19.6138 24.8875 19.9944C24.7688 20.375 24.7433 20.7785 24.813 21.171L25.589 26.234C26.03 28.86 23.819 30.724 21.581 29.524L17.045 27.111C16.7359 26.9474 16.3916 26.8619 16.042 26.8619C15.6923 26.8619 15.348 26.9474 15.039 27.111L10.503 29.523C8.26496 30.713 5.91696 28.906 6.57296 26.172L7.33896 21.219C7.40865 20.8265 7.38308 20.423 7.2644 20.0424C7.14572 19.6618 6.9374 19.3153 6.65696 19.032L3.13596 15.344C1.15096 13.383 2.12496 10.712 4.66296 10.337L9.40996 9.63999C10.133 9.53299 10.962 9.06099 11.293 8.36399L13.541 3.74399C14.685 1.41899 17.471 1.41899 18.606 3.74399" fill="url(#paint2_radial_89_3215)"/>
<path d="M18.605 3.74399L20.808 8.36399C21.148 9.04999 21.771 9.53299 22.493 9.63999L27.421 10.336C29.959 10.712 30.917 13.437 28.948 15.422L25.495 18.984C25.2145 19.2673 25.0062 19.6138 24.8875 19.9944C24.7688 20.375 24.7433 20.7785 24.813 21.171L25.589 26.234C26.03 28.86 23.819 30.724 21.581 29.524L17.045 27.111C16.7359 26.9474 16.3916 26.8619 16.042 26.8619C15.6923 26.8619 15.348 26.9474 15.039 27.111L10.503 29.523C8.26496 30.713 5.91696 28.906 6.57296 26.172L7.33896 21.219C7.40865 20.8265 7.38308 20.423 7.2644 20.0424C7.14572 19.6618 6.9374 19.3153 6.65696 19.032L3.13596 15.344C1.15096 13.383 2.12496 10.712 4.66296 10.337L9.40996 9.63999C10.133 9.53299 10.962 9.06099 11.293 8.36399L13.541 3.74399C14.685 1.41899 17.471 1.41899 18.606 3.74399" fill="url(#paint3_radial_89_3215)"/>
<path d="M18.605 3.74399L20.808 8.36399C21.148 9.04999 21.771 9.53299 22.493 9.63999L27.421 10.336C29.959 10.712 30.917 13.437 28.948 15.422L25.495 18.984C25.2145 19.2673 25.0062 19.6138 24.8875 19.9944C24.7688 20.375 24.7433 20.7785 24.813 21.171L25.589 26.234C26.03 28.86 23.819 30.724 21.581 29.524L17.045 27.111C16.7359 26.9474 16.3916 26.8619 16.042 26.8619C15.6923 26.8619 15.348 26.9474 15.039 27.111L10.503 29.523C8.26496 30.713 5.91696 28.906 6.57296 26.172L7.33896 21.219C7.40865 20.8265 7.38308 20.423 7.2644 20.0424C7.14572 19.6618 6.9374 19.3153 6.65696 19.032L3.13596 15.344C1.15096 13.383 2.12496 10.712 4.66296 10.337L9.40996 9.63999C10.133 9.53299 10.962 9.06099 11.293 8.36399L13.541 3.74399C14.685 1.41899 17.471 1.41899 18.606 3.74399" fill="url(#paint4_radial_89_3215)"/>
<path d="M18.605 3.74399L20.808 8.36399C21.148 9.04999 21.771 9.53299 22.493 9.63999L27.421 10.336C29.959 10.712 30.917 13.437 28.948 15.422L25.495 18.984C25.2145 19.2673 25.0062 19.6138 24.8875 19.9944C24.7688 20.375 24.7433 20.7785 24.813 21.171L25.589 26.234C26.03 28.86 23.819 30.724 21.581 29.524L17.045 27.111C16.7359 26.9474 16.3916 26.8619 16.042 26.8619C15.6923 26.8619 15.348 26.9474 15.039 27.111L10.503 29.523C8.26496 30.713 5.91696 28.906 6.57296 26.172L7.33896 21.219C7.40865 20.8265 7.38308 20.423 7.2644 20.0424C7.14572 19.6618 6.9374 19.3153 6.65696 19.032L3.13596 15.344C1.15096 13.383 2.12496 10.712 4.66296 10.337L9.40996 9.63999C10.133 9.53299 10.962 9.06099 11.293 8.36399L13.541 3.74399C14.685 1.41899 17.471 1.41899 18.606 3.74399" fill="url(#paint5_radial_89_3215)"/>
<defs>
<filter id="filter0_iii_89_3215" x="0.827148" y="1.50024" width="30.6726" height="29.6458" filterUnits="userSpaceOnUse" color-interpolation-filters="sRGB">
<feFlood flood-opacity="0" result="BackgroundImageFix"/>
<feBlend mode="normal" in="SourceGraphic" in2="BackgroundImageFix" result="shape"/>
<feColorMatrix in="SourceAlpha" type="matrix" values="0 0 0 0 0 0 0 0 0 0 0 0 0 0 0 0 0 0 127 0" result="hardAlpha"/>
<feOffset dy="-0.5"/>
<feGaussianBlur stdDeviation="1.5"/>
<feComposite in2="hardAlpha" operator="arithmetic" k2="-1" k3="1"/>
<feColorMatrix type="matrix" values="0 0 0 0 0.772549 0 0 0 0 0.494118 0 0 0 0 0.282353 0 0 0 1 0"/>
<feBlend mode="normal" in2="shape" result="effect1_innerShadow_89_3215"/>
<feColorMatrix in="SourceAlpha" type="matrix" values="0 0 0 0 0 0 0 0 0 0 0 0 0 0 0 0 0 0 127 0" result="hardAlpha"/>
<feOffset dx="-1.25" dy="1.25"/>
<feGaussianBlur stdDeviation="0.75"/>
<feComposite in2="hardAlpha" operator="arithmetic" k2="-1" k3="1"/>
<feColorMatrix type="matrix" values="0 0 0 0 1 0 0 0 0 0.952941 0 0 0 0 0.286275 0 0 0 1 0"/>
<feBlend mode="normal" in2="effect1_innerShadow_89_3215" result="effect2_innerShadow_89_3215"/>
<feColorMatrix in="SourceAlpha" type="matrix" values="0 0 0 0 0 0 0 0 0 0 0 0 0 0 0 0 0 0 127 0" result="hardAlpha"/>
<feOffset dx="1.5" dy="-0.5"/>
<feGaussianBlur stdDeviation="0.75"/>
<feComposite in2="hardAlpha" operator="arithmetic" k2="-1" k3="1"/>
<feColorMatrix type="matrix" values="0 0 0 0 0.698039 0 0 0 0 0.537255 0 0 0 0 0.192157 0 0 0 1 0"/>
<feBlend mode="normal" in2="effect2_innerShadow_89_3215" result="effect3_innerShadow_89_3215"/>
</filter>
<radialGradient id="paint0_radial_89_3215" cx="0" cy="0" r="1" gradientUnits="userSpaceOnUse" gradientTransform="translate(24.5417 8.96942) rotate(132.939) scale(19.9803 19.7731)">
<stop stop-color="#FAC632"/>
<stop offset="1" stop-color="#F7C632"/>
</radialGradient>
<radialGradient id="paint1_radial_89_3215" cx="0" cy="0" r="1" gradientUnits="userSpaceOnUse" gradientTransform="translate(16.039 15.948) rotate(90) scale(13.9478 13.9614)">
<stop stop-color="#DDBA38"/>
<stop offset="1" stop-color="#DDBA38" stop-opacity="0"/>
</radialGradient>
<radialGradient id="paint2_radial_89_3215" cx="0" cy="0" r="1" gradientUnits="userSpaceOnUse" gradientTransform="translate(7.05996 10.082) rotate(74.0547) scale(2.26515 7.5594)">
<stop stop-color="#DDBA38"/>
<stop offset="1" stop-color="#DDBA38" stop-opacity="0"/>
</radialGradient>
<radialGradient id="paint3_radial_89_3215" cx="0" cy="0" r="1" gradientUnits="userSpaceOnUse" gradientTransform="translate(2.07696 11.52) rotate(16.0829) scale(3.93102 3.93486)">
<stop stop-color="#B5953A"/>
<stop offset="1" stop-color="#B5953A" stop-opacity="0"/>
</radialGradient>
<radialGradient id="paint4_radial_89_3215" cx="0" cy="0" r="1" gradientUnits="userSpaceOnUse" gradientTransform="translate(8.88796 30.811) rotate(-58.4961) scale(2.82823 2.83099)">
<stop stop-color="#C47E42"/>
<stop offset="1" stop-color="#C47E42" stop-opacity="0"/>
</radialGradient>
<radialGradient id="paint5_radial_89_3215" cx="0" cy="0" r="1" gradientUnits="userSpaceOnUse" gradientTransform="translate(31.0567 11.6761) rotate(150.751) scale(2.2288 2.93061)">
<stop stop-color="#FFF246"/>
<stop offset="1" stop-color="#FFF246" stop-opacity="0"/>
</radialGradient>
</defs>
</svg>
