<svg width="19" height="18" viewBox="0 0 19 18" fill="none" xmlns="http://www.w3.org/2000/svg">
<g clip-path="url(#clip0_62_1346)">
<path d="M13.9377 13.2637L10.5865 15.667L5.92625 15.8428L4.2832 16.0861C4.2832 16.0861 5.19317 16.6373 6.0805 16.9678C6.96783 17.2983 7.76742 17.1886 7.76742 17.1886C7.76742 17.1886 8.36604 17.498 10.1421 17.3644C11.9182 17.2322 12.6951 16.5487 12.6951 16.5487L12.9173 16.6584C12.9173 16.6584 13.5386 16.5262 14.2717 16.0186C15.0047 15.5109 16.4992 14.0808 17.0907 12.4678C17.7361 10.7044 17.7346 9.00562 17.5563 7.81453C17.5422 7.72172 17.5521 7.40812 17.5026 7.4039C16.9138 7.34765 13.9985 13.223 13.9377 13.2637Z" fill="#C5B3AF"/>
<path d="M4.88181 2.23594L2.81704 3.33844L2.21841 3.99937L0.930584 6.75562C0.930584 6.75562 0.841427 6.9314 0.841427 7.13109V7.63875C0.841427 7.63875 0.698492 9.27703 0.6433 9.51469C0.576785 9.80156 0.576785 10.1095 0.709814 10.3528C0.842842 10.5961 1.75281 12.735 1.75281 12.735L2.61891 14.4337C2.61891 14.4337 2.95148 14.9625 3.37321 15.3816C3.79494 15.8006 4.54924 16.0875 4.54924 16.0875C4.54924 16.0875 4.98088 16.3898 5.6814 16.3969C6.27295 16.4025 6.73855 16.2337 6.73855 16.2337C6.73855 16.2337 7.432 16.7245 8.82738 16.7062C10.5567 16.6838 10.653 16.1536 10.653 16.1536C10.653 16.1536 11.6691 16.3322 13.1338 15.383C14.5985 14.4352 15.3585 12.5803 15.3585 12.5803C15.3585 12.5803 16.0024 12.3595 16.4242 11.5003C16.8459 10.6411 17.5563 8.52328 17.5563 7.81734C17.5563 7.32094 17.4148 6.33094 16.9096 5.2664C16.7185 4.86422 16.4822 4.54922 16.202 4.22297C15.9939 3.98109 15.65 3.59156 15.65 3.59156C15.65 3.59156 15.3585 3.09797 15.2028 2.92078C15.0472 2.74359 14.5589 2.36953 14.5589 2.36953L12.1842 1.08984C12.1842 1.08984 11.5856 0.759373 11.2516 0.67078C10.919 0.582186 4.88181 2.23594 4.88181 2.23594Z" fill="#D8CDC9"/>
<path d="M14.1597 4.41984C13.6205 4.64625 12.3355 5.32266 12.3808 6.31547C12.4261 7.30828 12.8733 7.57406 13.0502 9.62437C13.2271 11.6761 12.8506 12.9544 12.9837 13.1316C13.1167 13.3073 14.0748 12.9459 14.6678 12.1345C15.2225 11.3737 15.6259 9.75797 15.6259 9.75797C15.6259 9.75797 16.291 9.53719 16.8486 8.50219C17.2788 7.70203 17.3878 7.12687 17.3623 6.58266C17.3453 6.20859 16.9292 4.92047 16.3066 4.3875C15.7759 3.93469 14.7909 4.15547 14.1597 4.41984Z" fill="#F2EEEC"/>
<path d="M0.931999 6.75844C0.931999 6.75844 2.59627 7.50797 4.88323 8.05922C7.17018 8.61047 9.52224 9.02953 10.0105 9.11812C10.4987 9.20672 10.8539 9.02953 10.9643 8.78765C11.0747 8.54437 11.0931 7.18875 10.7209 6.70219C10.4633 6.36469 9.90859 5.92875 9.90859 5.92875L5.90217 5.21437L2.41796 4.20047L2.21841 4.00219C2.21841 4.00219 1.6863 4.50984 1.35231 5.19328C1.01833 5.87672 0.931999 6.75844 0.931999 6.75844ZM0.837181 7.63875C0.958888 7.72875 5.74367 9.06469 5.74367 9.06469C5.74367 9.06469 11.195 10.0041 11.195 10.1123C11.195 10.2206 10.9587 11.5214 10.3402 11.8997C9.72178 12.2794 6.66354 11.9756 5.5979 11.7548C2.54532 11.1248 0.637638 9.64406 0.637638 9.64406C0.637638 9.64406 0.510271 9.15609 0.582446 8.48812C0.620656 8.14219 0.837181 7.63875 0.837181 7.63875Z" fill="#F1EDEC"/>
<path d="M0.946129 10.7269L2.81843 11.8645L6.6522 12.8573L10.7959 12.8939C10.7959 12.8939 11.0506 13.237 10.9954 13.4902C10.9402 13.7433 10.6317 14.5913 9.75997 14.9527C8.96888 15.2803 6.21774 15.6234 3.96333 14.8078C1.96507 14.085 1.58297 13.0556 1.21926 12.2442C0.84565 11.4089 0.946129 10.7269 0.946129 10.7269ZM7.62869 4.18219L9.43448 2.36672L11.9847 1.26844C11.9847 1.26844 12.6427 1.28953 12.814 1.33172C12.9852 1.37391 13.4296 1.50047 14.0891 1.90125C14.7485 2.30203 15.2028 2.91938 15.2028 2.91938C15.2028 2.91938 14.5136 2.30203 12.6017 3.27375C10.6898 4.24547 10.6671 4.77281 10.3062 4.85719C9.94536 4.94156 9.1854 4.87828 8.64904 4.75172C7.75605 4.54078 7.62869 4.18219 7.62869 4.18219ZM3.02222 3.30891C3.02222 3.30891 3.2529 3.6 3.90106 3.75328C4.5478 3.90656 5.1804 3.78422 5.1804 3.78422C5.1804 3.78422 5.36579 4.01344 5.95168 4.13578C6.53757 4.25813 6.76825 4.12031 6.89137 3.96703C7.01449 3.81375 7.89333 2.45109 9.1571 1.68469C10.4209 0.918282 11.5686 0.779063 11.5686 0.779063C11.5686 0.779063 10.8242 0.410626 9.76139 0.471095C8.69857 0.531563 7.79992 0.874688 7.79992 0.874688L7.29187 0.921095C7.29187 0.921095 6.50644 0.829688 5.5342 1.24313C4.56196 1.65656 3.51471 2.60578 3.51471 2.60578L3.02222 3.30891Z" fill="#F1EDEC"/>
<path d="M9.55347 5.81062C9.55347 5.81062 10.4988 5.54484 10.8781 5.34797C11.2574 5.15109 12.5027 4.5225 12.5027 4.5225C12.5027 4.5225 12.0159 5.38453 11.9791 5.90344C11.9395 6.46594 12.0739 7.60781 12.0739 7.60781L11.8036 7.45594C11.8036 7.45594 11.1427 6.83016 10.8908 6.63187C10.6389 6.43359 9.55347 5.81062 9.55347 5.81062Z" fill="#C5B3AF"/>
<path d="M12.3327 10.4766C12.303 10.4738 9.35941 10.2164 4.43736 9.01688C1.5546 8.31375 0.811623 7.84406 0.764922 7.81453C0.764922 7.81453 0.801717 7.73156 0.82153 7.55297C0.839927 7.37438 0.842758 7.19297 0.842758 7.19297C0.854079 7.2 1.80368 7.78219 4.57605 8.45719C9.44998 9.64547 12.354 9.9 12.3823 9.90281L12.3327 10.4766ZM8.82871 13.2581C7.38946 13.2581 5.62046 13.0838 3.76797 12.4903C1.96642 11.9138 1.01258 11.2148 0.941821 11.1656C0.941821 11.1656 0.957388 11.0334 0.906441 10.8295C0.855494 10.6256 0.730957 10.3852 0.730957 10.3852C0.747939 10.3964 2.22823 11.3906 3.94628 11.9405C8.17772 13.2961 12.078 12.3539 12.1162 12.3441L12.2577 12.9038C12.1615 12.9291 10.8057 13.2581 8.82871 13.2581ZM11.3789 16.2534C10.9161 15.9905 10.5581 15.6052 10.5538 15.6009L10.4661 15.5067L10.3373 15.5236C10.3161 15.5264 8.16074 15.802 5.1308 14.9738C3.68589 14.5786 2.42495 13.9331 2.18153 13.7672C2.18153 13.7672 2.28343 14.3241 2.68959 14.5364C3.05432 14.7256 3.42841 14.8965 3.81042 15.0483C3.84297 15.1678 3.95053 15.5489 4.15856 15.9089C4.48123 16.4658 5.30204 16.6331 5.30204 16.6331C5.2978 16.6275 4.81521 16.0256 4.61567 15.5967C4.56472 15.4856 4.52793 15.3872 4.49962 15.3C4.66379 15.3534 4.82937 15.4041 4.99636 15.4505C5.33034 15.5419 5.65301 15.6192 5.96294 15.6867C6.07615 15.9047 6.31108 16.2998 6.70308 16.6852C6.86442 16.8441 7.0866 17.048 7.34417 17.1591C7.92015 17.4066 8.43953 17.3503 8.43953 17.3503C8.43104 17.3433 7.64844 16.8469 7.23095 16.4348C7.07387 16.2802 6.81772 15.9722 6.71582 15.8302C8.56831 16.148 9.87454 16.0636 10.275 16.0242C10.4222 16.1691 10.7392 16.4573 11.1298 16.6795C11.3577 16.8089 11.5629 16.9256 11.7893 16.9748C12.2393 17.0719 12.5379 16.7527 12.5379 16.7527C12.5351 16.7498 11.8898 16.5417 11.3789 16.2534Z" fill="#9B8D8B"/>
<path d="M10.537 15.9961L10.2072 15.5391L10.3714 15.7683L10.2058 15.5405C10.2228 15.5278 11.938 14.2481 12.0923 10.8773C12.2451 7.50516 10.9474 6.21 10.9332 6.19735L11.3238 5.79094C11.3847 5.8486 12.8239 7.24781 12.6569 10.9041C12.4914 14.5645 10.6176 15.9384 10.537 15.9961Z" fill="#9B8D8B"/>
<path d="M12.0116 16.9917L11.8191 16.5094C11.9309 16.4911 14.6891 15.9694 15.2962 10.9575C15.7618 7.11422 13.5428 3.92766 13.5202 3.89672L13.9829 3.57188C14.0792 3.70828 16.352 6.95953 15.8581 11.025C15.1957 16.4883 12.1531 16.9959 12.0116 16.9917Z" fill="#9B8D8B"/>
<path d="M13.4621 3.57188C12.1318 4.08656 11.2587 5.26641 10.977 5.6925C10.4944 5.65594 9.03962 5.52656 7.33007 5.19188C7.65273 4.62094 8.45515 3.37078 9.69911 2.55375C11.3521 1.46953 12.7375 1.3261 12.7701 1.31766C12.8026 1.30922 12.3597 0.887345 11.9549 0.970314C11.2303 1.11938 10.2977 1.48922 9.38776 2.08547C7.90464 3.06 7.02722 4.55063 6.75125 5.07375C6.3366 4.98375 5.91204 4.8811 5.48607 4.76578C5.35162 4.72922 5.22143 4.69266 5.09406 4.6575C5.2936 4.16672 5.73797 3.16969 6.28707 2.49891C7.36545 1.18547 8.64478 0.637033 8.65894 0.631408C8.65894 0.631408 7.83954 0.402189 7.12345 0.922502C6.71021 1.22344 6.26726 1.63406 5.84977 2.14313C5.22709 2.9025 4.74592 4.0036 4.54779 4.50141C3.93077 4.32281 3.42979 4.16953 3.03353 4.04016C3.13967 3.8011 3.28968 3.48188 3.45102 3.20344C3.74962 2.68453 4.07653 2.17125 4.07936 2.16703C4.07936 2.16703 3.35054 2.42156 2.93164 3.10781C2.74059 3.4186 2.67407 3.63094 2.56227 3.88547C2.49434 3.86297 2.43915 3.83625 2.37688 3.84047C2.04148 3.85875 1.91553 4.34531 1.91553 4.34531C1.95657 4.3636 2.59341 4.57313 5.33464 5.32266C8.21881 6.11016 11.0874 6.28172 11.1157 6.28313L11.294 6.29297L11.3832 6.13969C11.3917 6.12563 12.2634 4.6575 13.6744 4.11188C14.8632 3.65203 15.8538 3.83203 15.8637 3.83344C15.8637 3.83344 15.8269 3.69422 15.7335 3.54094C15.6642 3.42844 15.4674 3.31453 15.4674 3.31453C15.4207 3.30188 14.832 3.04313 13.4621 3.57188Z" fill="#9B8D8B"/>
</g>
<defs>
<clipPath id="clip0_62_1346">
<rect width="18.1145" height="18" fill="white" transform="translate(0.0927734)"/>
</clipPath>
</defs>
</svg>
